<svg id="ic_cart" xmlns="http://www.w3.org/2000/svg" width="54" height="54" viewBox="0 0 54 54">
  <rect id="Rectangle_1811" data-name="Rectangle 1811" width="54" height="54" fill="none"/>
  <path id="Path_464" data-name="Path 464" d="M-19489.215-16028.448l-4.148,10.126" transform="translate(19507.287 16038.5)" fill="none" stroke="#000" stroke-linecap="round" stroke-width="2"/>
  <path id="Path_450" data-name="Path 450" d="M570.928,1516.274v4.68" transform="translate(-549.809 -1486.175)" fill="none" stroke="#000" stroke-linecap="round" stroke-width="2"/>
  <path id="Path_461" data-name="Path 461" d="M570.928,1516.274v4.68" transform="translate(-544.11 -1486.175)" fill="none" stroke="#000" stroke-linecap="round" stroke-width="2"/>
  <path id="Path_462" data-name="Path 462" d="M570.928,1516.274v4.68" transform="translate(-538.411 -1486.175)" fill="none" stroke="#000" stroke-linecap="round" stroke-width="2"/>
  <path id="Path_463" data-name="Path 463" d="M-19469.957-16017.991h-28.646s3.072,18.908,4,21.609a5.011,5.011,0,0,0,4.551,3.674c5.375.451,20.689.033,23.232,0,1.9,0,3.729-.889,4.67-3.674s4.551-21.609,4.551-21.609h-6.285l-3.937-10.459" transform="translate(19505.391 16038.5)" fill="none" stroke="#000" stroke-linecap="round" stroke-width="2"/>
  <line id="Line_157" data-name="Line 157" x2="6" transform="translate(14.787 10)" fill="none" stroke="#000" stroke-linecap="round" stroke-width="2"/>
  <line id="Line_158" data-name="Line 158" x2="6" transform="translate(33.756 10)" fill="none" stroke="#000" stroke-linecap="round" stroke-width="2"/>
</svg>
